<mxfile host="Electron" agent="Mozilla/5.0 (Windows NT 10.0; Win64; x64) AppleWebKit/537.36 (KHTML, like Gecko) draw.io/26.2.2 Chrome/134.0.6998.178 Electron/35.1.2 Safari/537.36" version="26.2.2">
  <diagram name="Page-1" id="QB5U12qxhQR6v0tj6dt_">
    <mxGraphModel dx="1212" dy="868" grid="1" gridSize="10" guides="1" tooltips="1" connect="1" arrows="1" fold="1" page="1" pageScale="1" pageWidth="1100" pageHeight="1700" background="none" math="0" shadow="0">
      <root>
        <mxCell id="0" />
        <mxCell id="1" parent="0" />
        <mxCell id="1ELHmcdmaIoP27FU7ZCw-1" value="" style="rounded=0;whiteSpace=wrap;html=1;fillColor=none;dashed=1;" vertex="1" parent="1">
          <mxGeometry x="20" y="130" width="190" height="410" as="geometry" />
        </mxCell>
        <mxCell id="1ELHmcdmaIoP27FU7ZCw-2" value="&lt;font style=&quot;font-size: 20px;&quot;&gt;&lt;b style=&quot;&quot;&gt;Sources&lt;/b&gt;&lt;/font&gt;" style="rounded=0;whiteSpace=wrap;html=1;fillColor=default;strokeColor=none;" vertex="1" parent="1">
          <mxGeometry x="55" y="110" width="120" height="40" as="geometry" />
        </mxCell>
        <mxCell id="1ELHmcdmaIoP27FU7ZCw-6" value="&lt;b&gt;&lt;font style=&quot;font-size: 20px;&quot;&gt;CRM&lt;/font&gt;&lt;/b&gt;" style="image;aspect=fixed;html=1;points=[];align=center;fontSize=12;image=img/lib/azure2/general/Folder_Blank.svg;" vertex="1" parent="1">
          <mxGeometry x="71.88" y="200" width="86.25" height="70" as="geometry" />
        </mxCell>
        <mxCell id="1ELHmcdmaIoP27FU7ZCw-5" value="" style="image;aspect=fixed;html=1;points=[];align=center;fontSize=12;image=img/lib/azure2/general/File.svg;" vertex="1" parent="1">
          <mxGeometry x="150.65" y="230" width="24.35" height="30" as="geometry" />
        </mxCell>
        <mxCell id="1ELHmcdmaIoP27FU7ZCw-8" value="&lt;span style=&quot;font-size: 20px;&quot;&gt;&lt;b&gt;ERP&lt;/b&gt;&lt;/span&gt;" style="image;aspect=fixed;html=1;points=[];align=center;fontSize=12;image=img/lib/azure2/general/Folder_Blank.svg;" vertex="1" parent="1">
          <mxGeometry x="71.88" y="380" width="86.25" height="70" as="geometry" />
        </mxCell>
        <mxCell id="1ELHmcdmaIoP27FU7ZCw-9" value="" style="image;aspect=fixed;html=1;points=[];align=center;fontSize=12;image=img/lib/azure2/general/File.svg;" vertex="1" parent="1">
          <mxGeometry x="150.65" y="410" width="24.35" height="30" as="geometry" />
        </mxCell>
        <mxCell id="1ELHmcdmaIoP27FU7ZCw-10" value="" style="rounded=1;whiteSpace=wrap;html=1;fillColor=#ffe6cc;strokeColor=#d79b00;fillStyle=hatch;" vertex="1" parent="1">
          <mxGeometry x="300" y="150" width="160" height="390" as="geometry" />
        </mxCell>
        <mxCell id="1ELHmcdmaIoP27FU7ZCw-11" value="&lt;font style=&quot;font-size: 20px;&quot;&gt;&lt;b style=&quot;&quot;&gt;Bronze Layer&lt;/b&gt;&lt;/font&gt;" style="rounded=1;whiteSpace=wrap;html=1;fillColor=#ffe6cc;strokeColor=#d79b00;" vertex="1" parent="1">
          <mxGeometry x="300" y="100" width="160" height="40" as="geometry" />
        </mxCell>
        <mxCell id="1ELHmcdmaIoP27FU7ZCw-62" style="edgeStyle=orthogonalEdgeStyle;rounded=0;orthogonalLoop=1;jettySize=auto;html=1;entryX=0;entryY=0.5;entryDx=0;entryDy=0;" edge="1" parent="1" source="1ELHmcdmaIoP27FU7ZCw-13" target="1ELHmcdmaIoP27FU7ZCw-56">
          <mxGeometry relative="1" as="geometry" />
        </mxCell>
        <mxCell id="1ELHmcdmaIoP27FU7ZCw-13" value="&lt;font style=&quot;font-size: 16px;&quot;&gt;crm_cust_info&lt;/font&gt;" style="rounded=1;whiteSpace=wrap;html=1;fillColor=#ffe6cc;strokeColor=#d79b00;" vertex="1" parent="1">
          <mxGeometry x="310" y="170" width="140" height="40" as="geometry" />
        </mxCell>
        <mxCell id="1ELHmcdmaIoP27FU7ZCw-63" style="edgeStyle=orthogonalEdgeStyle;rounded=0;orthogonalLoop=1;jettySize=auto;html=1;entryX=0;entryY=0.5;entryDx=0;entryDy=0;" edge="1" parent="1" source="1ELHmcdmaIoP27FU7ZCw-14" target="1ELHmcdmaIoP27FU7ZCw-57">
          <mxGeometry relative="1" as="geometry" />
        </mxCell>
        <mxCell id="1ELHmcdmaIoP27FU7ZCw-14" value="&lt;font style=&quot;font-size: 16px;&quot;&gt;crm_prd_info&lt;/font&gt;" style="rounded=1;whiteSpace=wrap;html=1;fillColor=#ffe6cc;strokeColor=#d79b00;" vertex="1" parent="1">
          <mxGeometry x="310" y="220" width="140" height="40" as="geometry" />
        </mxCell>
        <mxCell id="1ELHmcdmaIoP27FU7ZCw-64" style="edgeStyle=orthogonalEdgeStyle;rounded=0;orthogonalLoop=1;jettySize=auto;html=1;entryX=0;entryY=0.5;entryDx=0;entryDy=0;" edge="1" parent="1" source="1ELHmcdmaIoP27FU7ZCw-15" target="1ELHmcdmaIoP27FU7ZCw-58">
          <mxGeometry relative="1" as="geometry" />
        </mxCell>
        <mxCell id="1ELHmcdmaIoP27FU7ZCw-15" value="&lt;font style=&quot;font-size: 16px;&quot;&gt;crm_sales_details&lt;/font&gt;" style="rounded=1;whiteSpace=wrap;html=1;fillColor=#ffe6cc;strokeColor=#d79b00;" vertex="1" parent="1">
          <mxGeometry x="310" y="270" width="140" height="40" as="geometry" />
        </mxCell>
        <mxCell id="1ELHmcdmaIoP27FU7ZCw-65" style="edgeStyle=orthogonalEdgeStyle;rounded=0;orthogonalLoop=1;jettySize=auto;html=1;entryX=0;entryY=0.5;entryDx=0;entryDy=0;" edge="1" parent="1" source="1ELHmcdmaIoP27FU7ZCw-16" target="1ELHmcdmaIoP27FU7ZCw-59">
          <mxGeometry relative="1" as="geometry" />
        </mxCell>
        <mxCell id="1ELHmcdmaIoP27FU7ZCw-16" value="&lt;font style=&quot;font-size: 16px;&quot;&gt;erp_cust_az12&lt;/font&gt;" style="rounded=1;whiteSpace=wrap;html=1;fillColor=#ffe6cc;strokeColor=#d79b00;" vertex="1" parent="1">
          <mxGeometry x="310" y="360" width="140" height="40" as="geometry" />
        </mxCell>
        <mxCell id="1ELHmcdmaIoP27FU7ZCw-66" style="edgeStyle=orthogonalEdgeStyle;rounded=0;orthogonalLoop=1;jettySize=auto;html=1;entryX=0;entryY=0.5;entryDx=0;entryDy=0;" edge="1" parent="1" source="1ELHmcdmaIoP27FU7ZCw-17" target="1ELHmcdmaIoP27FU7ZCw-60">
          <mxGeometry relative="1" as="geometry" />
        </mxCell>
        <mxCell id="1ELHmcdmaIoP27FU7ZCw-17" value="&lt;font style=&quot;font-size: 16px;&quot;&gt;erp_loc_a101&lt;/font&gt;" style="rounded=1;whiteSpace=wrap;html=1;fillColor=#ffe6cc;strokeColor=#d79b00;" vertex="1" parent="1">
          <mxGeometry x="310" y="410" width="140" height="40" as="geometry" />
        </mxCell>
        <mxCell id="1ELHmcdmaIoP27FU7ZCw-67" style="edgeStyle=orthogonalEdgeStyle;rounded=0;orthogonalLoop=1;jettySize=auto;html=1;entryX=0;entryY=0.5;entryDx=0;entryDy=0;" edge="1" parent="1" source="1ELHmcdmaIoP27FU7ZCw-18" target="1ELHmcdmaIoP27FU7ZCw-61">
          <mxGeometry relative="1" as="geometry" />
        </mxCell>
        <mxCell id="1ELHmcdmaIoP27FU7ZCw-18" value="&lt;font style=&quot;font-size: 16px;&quot;&gt;erp_px_cat_g1v2&lt;/font&gt;" style="rounded=1;whiteSpace=wrap;html=1;fillColor=#ffe6cc;strokeColor=#d79b00;" vertex="1" parent="1">
          <mxGeometry x="310" y="460" width="140" height="40" as="geometry" />
        </mxCell>
        <mxCell id="1ELHmcdmaIoP27FU7ZCw-32" style="edgeStyle=orthogonalEdgeStyle;rounded=0;orthogonalLoop=1;jettySize=auto;html=1;entryX=0;entryY=0.5;entryDx=0;entryDy=0;exitX=0.959;exitY=0.673;exitDx=0;exitDy=0;exitPerimeter=0;" edge="1" parent="1" source="1ELHmcdmaIoP27FU7ZCw-9" target="1ELHmcdmaIoP27FU7ZCw-16">
          <mxGeometry relative="1" as="geometry">
            <mxPoint x="180" y="430" as="sourcePoint" />
            <Array as="points">
              <mxPoint x="234" y="430" />
              <mxPoint x="234" y="380" />
            </Array>
          </mxGeometry>
        </mxCell>
        <mxCell id="1ELHmcdmaIoP27FU7ZCw-40" style="edgeStyle=orthogonalEdgeStyle;rounded=0;orthogonalLoop=1;jettySize=auto;html=1;entryX=0;entryY=0.5;entryDx=0;entryDy=0;" edge="1" parent="1" target="1ELHmcdmaIoP27FU7ZCw-17">
          <mxGeometry relative="1" as="geometry">
            <mxPoint x="180" y="430" as="sourcePoint" />
          </mxGeometry>
        </mxCell>
        <mxCell id="1ELHmcdmaIoP27FU7ZCw-41" style="edgeStyle=orthogonalEdgeStyle;rounded=0;orthogonalLoop=1;jettySize=auto;html=1;entryX=0;entryY=0.5;entryDx=0;entryDy=0;exitX=0.842;exitY=0.705;exitDx=0;exitDy=0;exitPerimeter=0;" edge="1" parent="1" source="1ELHmcdmaIoP27FU7ZCw-9" target="1ELHmcdmaIoP27FU7ZCw-18">
          <mxGeometry relative="1" as="geometry">
            <Array as="points">
              <mxPoint x="234" y="430" />
              <mxPoint x="234" y="480" />
            </Array>
          </mxGeometry>
        </mxCell>
        <mxCell id="1ELHmcdmaIoP27FU7ZCw-43" style="edgeStyle=orthogonalEdgeStyle;rounded=0;orthogonalLoop=1;jettySize=auto;html=1;entryX=0;entryY=0.5;entryDx=0;entryDy=0;" edge="1" parent="1" source="1ELHmcdmaIoP27FU7ZCw-5" target="1ELHmcdmaIoP27FU7ZCw-13">
          <mxGeometry relative="1" as="geometry">
            <Array as="points">
              <mxPoint x="243" y="240" />
              <mxPoint x="243" y="190" />
            </Array>
          </mxGeometry>
        </mxCell>
        <mxCell id="1ELHmcdmaIoP27FU7ZCw-44" style="edgeStyle=orthogonalEdgeStyle;rounded=0;orthogonalLoop=1;jettySize=auto;html=1;entryX=0;entryY=0.5;entryDx=0;entryDy=0;" edge="1" parent="1" source="1ELHmcdmaIoP27FU7ZCw-6" target="1ELHmcdmaIoP27FU7ZCw-14">
          <mxGeometry relative="1" as="geometry">
            <Array as="points">
              <mxPoint x="200" y="240" />
              <mxPoint x="200" y="240" />
            </Array>
          </mxGeometry>
        </mxCell>
        <mxCell id="1ELHmcdmaIoP27FU7ZCw-45" style="edgeStyle=orthogonalEdgeStyle;rounded=0;orthogonalLoop=1;jettySize=auto;html=1;entryX=0;entryY=0.5;entryDx=0;entryDy=0;" edge="1" parent="1">
          <mxGeometry relative="1" as="geometry">
            <mxPoint x="160.1300000000001" y="240" as="sourcePoint" />
            <mxPoint x="312" y="290" as="targetPoint" />
            <Array as="points">
              <mxPoint x="242" y="240" />
              <mxPoint x="242" y="290" />
            </Array>
          </mxGeometry>
        </mxCell>
        <mxCell id="1ELHmcdmaIoP27FU7ZCw-54" value="" style="rounded=1;whiteSpace=wrap;html=1;fillColor=#f5f5f5;strokeColor=#666666;fillStyle=hatch;fontColor=#333333;" vertex="1" parent="1">
          <mxGeometry x="530" y="150" width="160" height="390" as="geometry" />
        </mxCell>
        <mxCell id="1ELHmcdmaIoP27FU7ZCw-55" value="&lt;span style=&quot;font-size: 20px;&quot;&gt;&lt;b&gt;Silver Layer&lt;/b&gt;&lt;/span&gt;" style="rounded=1;whiteSpace=wrap;html=1;fillColor=#f5f5f5;strokeColor=#666666;fontColor=#333333;" vertex="1" parent="1">
          <mxGeometry x="530" y="100" width="160" height="40" as="geometry" />
        </mxCell>
        <mxCell id="1ELHmcdmaIoP27FU7ZCw-77" style="edgeStyle=orthogonalEdgeStyle;rounded=0;orthogonalLoop=1;jettySize=auto;html=1;entryX=0;entryY=0.5;entryDx=0;entryDy=0;" edge="1" parent="1">
          <mxGeometry relative="1" as="geometry">
            <mxPoint x="681.9999999999998" y="190" as="sourcePoint" />
            <mxPoint x="771.9999999999998" y="335" as="targetPoint" />
            <Array as="points">
              <mxPoint x="712" y="190" />
              <mxPoint x="712" y="335" />
            </Array>
          </mxGeometry>
        </mxCell>
        <mxCell id="1ELHmcdmaIoP27FU7ZCw-56" value="&lt;font style=&quot;font-size: 16px;&quot;&gt;crm_cust_info&lt;/font&gt;" style="rounded=1;whiteSpace=wrap;html=1;fillColor=#f5f5f5;strokeColor=#666666;fontColor=#333333;" vertex="1" parent="1">
          <mxGeometry x="540" y="170" width="140" height="40" as="geometry" />
        </mxCell>
        <mxCell id="1ELHmcdmaIoP27FU7ZCw-57" value="&lt;font style=&quot;font-size: 16px;&quot;&gt;crm_prd_info&lt;/font&gt;" style="rounded=1;whiteSpace=wrap;html=1;fillColor=#f5f5f5;strokeColor=#666666;fontColor=#333333;" vertex="1" parent="1">
          <mxGeometry x="540" y="220" width="140" height="40" as="geometry" />
        </mxCell>
        <mxCell id="1ELHmcdmaIoP27FU7ZCw-76" style="edgeStyle=orthogonalEdgeStyle;rounded=0;orthogonalLoop=1;jettySize=auto;html=1;entryX=0;entryY=0.5;entryDx=0;entryDy=0;" edge="1" parent="1" source="1ELHmcdmaIoP27FU7ZCw-58" target="1ELHmcdmaIoP27FU7ZCw-70">
          <mxGeometry relative="1" as="geometry" />
        </mxCell>
        <mxCell id="1ELHmcdmaIoP27FU7ZCw-58" value="&lt;font style=&quot;font-size: 16px;&quot;&gt;crm_sales_details&lt;/font&gt;" style="rounded=1;whiteSpace=wrap;html=1;fillColor=#f5f5f5;strokeColor=#666666;fontColor=#333333;" vertex="1" parent="1">
          <mxGeometry x="540" y="270" width="140" height="40" as="geometry" />
        </mxCell>
        <mxCell id="1ELHmcdmaIoP27FU7ZCw-87" style="edgeStyle=orthogonalEdgeStyle;rounded=0;orthogonalLoop=1;jettySize=auto;html=1;entryX=0;entryY=0.5;entryDx=0;entryDy=0;" edge="1" parent="1" source="1ELHmcdmaIoP27FU7ZCw-59" target="1ELHmcdmaIoP27FU7ZCw-73">
          <mxGeometry relative="1" as="geometry" />
        </mxCell>
        <mxCell id="1ELHmcdmaIoP27FU7ZCw-59" value="&lt;font style=&quot;font-size: 16px;&quot;&gt;erp_cust_az12&lt;/font&gt;" style="rounded=1;whiteSpace=wrap;html=1;fillColor=#f5f5f5;strokeColor=#666666;fontColor=#333333;" vertex="1" parent="1">
          <mxGeometry x="540" y="360" width="140" height="40" as="geometry" />
        </mxCell>
        <mxCell id="1ELHmcdmaIoP27FU7ZCw-88" style="edgeStyle=orthogonalEdgeStyle;rounded=0;orthogonalLoop=1;jettySize=auto;html=1;entryX=0;entryY=0.75;entryDx=0;entryDy=0;" edge="1" parent="1" source="1ELHmcdmaIoP27FU7ZCw-60" target="1ELHmcdmaIoP27FU7ZCw-73">
          <mxGeometry relative="1" as="geometry">
            <Array as="points">
              <mxPoint x="730" y="430" />
              <mxPoint x="730" y="368" />
            </Array>
          </mxGeometry>
        </mxCell>
        <mxCell id="1ELHmcdmaIoP27FU7ZCw-60" value="&lt;font style=&quot;font-size: 16px;&quot;&gt;erp_loc_a101&lt;/font&gt;" style="rounded=1;whiteSpace=wrap;html=1;fillColor=#f5f5f5;strokeColor=#666666;fontColor=#333333;" vertex="1" parent="1">
          <mxGeometry x="540" y="410" width="140" height="40" as="geometry" />
        </mxCell>
        <mxCell id="1ELHmcdmaIoP27FU7ZCw-93" style="edgeStyle=orthogonalEdgeStyle;rounded=0;orthogonalLoop=1;jettySize=auto;html=1;entryX=0;entryY=0.5;entryDx=0;entryDy=0;" edge="1" parent="1" source="1ELHmcdmaIoP27FU7ZCw-61" target="1ELHmcdmaIoP27FU7ZCw-75">
          <mxGeometry relative="1" as="geometry">
            <Array as="points">
              <mxPoint x="710" y="475" />
              <mxPoint x="710" y="475" />
            </Array>
          </mxGeometry>
        </mxCell>
        <mxCell id="1ELHmcdmaIoP27FU7ZCw-61" value="&lt;font style=&quot;font-size: 16px;&quot;&gt;erp_px_cat_g1v2&lt;/font&gt;" style="rounded=1;whiteSpace=wrap;html=1;fillColor=#f5f5f5;strokeColor=#666666;fontColor=#333333;" vertex="1" parent="1">
          <mxGeometry x="540" y="460" width="140" height="40" as="geometry" />
        </mxCell>
        <mxCell id="1ELHmcdmaIoP27FU7ZCw-68" value="" style="rounded=1;whiteSpace=wrap;html=1;fillColor=#fff2cc;strokeColor=#d6b656;fillStyle=hatch;" vertex="1" parent="1">
          <mxGeometry x="760" y="150" width="160" height="390" as="geometry" />
        </mxCell>
        <mxCell id="1ELHmcdmaIoP27FU7ZCw-69" value="&lt;span style=&quot;font-size: 20px;&quot;&gt;&lt;b&gt;Gold Layer&lt;/b&gt;&lt;/span&gt;" style="rounded=1;whiteSpace=wrap;html=1;fillColor=#fff2cc;strokeColor=#d6b656;" vertex="1" parent="1">
          <mxGeometry x="760" y="100" width="160" height="40" as="geometry" />
        </mxCell>
        <mxCell id="1ELHmcdmaIoP27FU7ZCw-70" value="&lt;span style=&quot;font-size: 16px;&quot;&gt;fact_sales&lt;/span&gt;" style="rounded=1;whiteSpace=wrap;html=1;fillColor=#fff2cc;strokeColor=#d6b656;" vertex="1" parent="1">
          <mxGeometry x="770" y="170" width="140" height="80" as="geometry" />
        </mxCell>
        <mxCell id="1ELHmcdmaIoP27FU7ZCw-73" value="&lt;span style=&quot;font-size: 16px;&quot;&gt;dim_customers&lt;/span&gt;" style="rounded=1;whiteSpace=wrap;html=1;fillColor=#fff2cc;strokeColor=#d6b656;" vertex="1" parent="1">
          <mxGeometry x="770" y="300" width="140" height="90" as="geometry" />
        </mxCell>
        <mxCell id="1ELHmcdmaIoP27FU7ZCw-75" value="&lt;font style=&quot;font-size: 16px;&quot;&gt;dim_products&lt;/font&gt;" style="rounded=1;whiteSpace=wrap;html=1;fillColor=#fff2cc;strokeColor=#d6b656;" vertex="1" parent="1">
          <mxGeometry x="770" y="430" width="140" height="90" as="geometry" />
        </mxCell>
        <mxCell id="1ELHmcdmaIoP27FU7ZCw-89" style="edgeStyle=orthogonalEdgeStyle;rounded=0;orthogonalLoop=1;jettySize=auto;html=1;entryX=0.004;entryY=0.381;entryDx=0;entryDy=0;entryPerimeter=0;" edge="1" parent="1" source="1ELHmcdmaIoP27FU7ZCw-57" target="1ELHmcdmaIoP27FU7ZCw-75">
          <mxGeometry relative="1" as="geometry">
            <Array as="points">
              <mxPoint x="700" y="240" />
              <mxPoint x="700" y="464" />
            </Array>
          </mxGeometry>
        </mxCell>
        <mxCell id="1ELHmcdmaIoP27FU7ZCw-94" value="&lt;b&gt;&lt;font style=&quot;font-size: 20px;&quot;&gt;Data Flow/Lineage&lt;/font&gt;&lt;/b&gt;" style="text;html=1;align=center;verticalAlign=middle;whiteSpace=wrap;rounded=0;" vertex="1" parent="1">
          <mxGeometry x="20" y="20" width="220" height="70" as="geometry" />
        </mxCell>
      </root>
    </mxGraphModel>
  </diagram>
</mxfile>
